HIERARCHY
ROOT mixamorig:Hips
{
	OFFSET -0.000008 104.274872 1.554316
	CHANNELS 6 Xposition Yposition Zposition Xrotation Yrotation Zrotation
	JOINT mixamorig:Spine
	{
		OFFSET -0.000005 10.181595 0.131519
		CHANNELS 6 Xposition Yposition Zposition Xrotation Yrotation Zrotation
		JOINT mixamorig:Spine1
		{
			OFFSET -0.000000 9.893959 -1.470707
			CHANNELS 6 Xposition Yposition Zposition Xrotation Yrotation Zrotation
			JOINT mixamorig:Spine2
			{
				OFFSET -0.000000 9.220757 -1.370641
				CHANNELS 6 Xposition Yposition Zposition Xrotation Yrotation Zrotation
				JOINT mixamorig:Neck
				{
					OFFSET 0.000001 16.740417 -2.049036
					CHANNELS 6 Xposition Yposition Zposition Xrotation Yrotation Zrotation
					JOINT mixamorig:Head
					{
						OFFSET 0.000000 9.617874 1.685006
						CHANNELS 6 Xposition Yposition Zposition Xrotation Yrotation Zrotation
						JOINT mixamorig:HeadTop_End
						{
							OFFSET 0.000002 22.037354 7.501101
							CHANNELS 6 Xposition Yposition Zposition Xrotation Yrotation Zrotation
							End Site
							{
								OFFSET 0.000168 2310.654297 -282.823242
							}
						}
					}
				}
				JOINT mixamorig:RightShoulder
				{
					OFFSET -4.569970 11.014908 -2.160885
					CHANNELS 6 Xposition Yposition Zposition Xrotation Yrotation Zrotation
					JOINT mixamorig:RightArm
					{
						OFFSET -10.592851 -0.524811 -2.232101
						CHANNELS 6 Xposition Yposition Zposition Xrotation Yrotation Zrotation
						JOINT mixamorig:RightForeArm
						{
							OFFSET -27.841511 0.000031 -0.000004
							CHANNELS 6 Xposition Yposition Zposition Xrotation Yrotation Zrotation
							JOINT mixamorig:RightHand
							{
								OFFSET -28.328831 -0.000015 0.000015
								CHANNELS 6 Xposition Yposition Zposition Xrotation Yrotation Zrotation
								JOINT mixamorig:RightHandThumb1
								{
									OFFSET -2.464806 -1.573990 2.681852
									CHANNELS 6 Xposition Yposition Zposition Xrotation Yrotation Zrotation
									JOINT mixamorig:RightHandThumb2
									{
										OFFSET -3.215179 -1.872803 1.924282
										CHANNELS 6 Xposition Yposition Zposition Xrotation Yrotation Zrotation
										JOINT mixamorig:RightHandThumb3
										{
											OFFSET -2.654831 -1.527969 1.512609
											CHANNELS 6 Xposition Yposition Zposition Xrotation Yrotation Zrotation
											JOINT mixamorig:RightHandThumb4
											{
												OFFSET -2.018814 -1.152008 1.108052
												CHANNELS 6 Xposition Yposition Zposition Xrotation Yrotation Zrotation
												End Site
												{
													OFFSET -188.809540 -114.533607 132.431396
												}
											}
										}
									}
								}
								JOINT mixamorig:RightHandIndex1
								{
									OFFSET -9.108284 -0.517868 2.259835
									CHANNELS 6 Xposition Yposition Zposition Xrotation Yrotation Zrotation
									JOINT mixamorig:RightHandIndex2
									{
										OFFSET -3.699989 0.000000 0.001215
										CHANNELS 6 Xposition Yposition Zposition Xrotation Yrotation Zrotation
										JOINT mixamorig:RightHandIndex3
										{
											OFFSET -2.850006 0.000031 -0.000522
											CHANNELS 6 Xposition Yposition Zposition Xrotation Yrotation Zrotation
											JOINT mixamorig:RightHandIndex4
											{
												OFFSET -2.772186 -0.000015 -0.000020
												CHANNELS 6 Xposition Yposition Zposition Xrotation Yrotation Zrotation
												End Site
												{
													OFFSET -277.218445 0.000000 -0.050231
												}
											}
										}
									}
								}
								JOINT mixamorig:RightHandMiddle1
								{
									OFFSET -9.532516 -0.000031 -0.000023
									CHANNELS 6 Xposition Yposition Zposition Xrotation Yrotation Zrotation
									JOINT mixamorig:RightHandMiddle2
									{
										OFFSET -3.700005 -0.000015 0.003713
										CHANNELS 6 Xposition Yposition Zposition Xrotation Yrotation Zrotation
										JOINT mixamorig:RightHandMiddle3
										{
											OFFSET -2.949974 0.000015 -0.002054
											CHANNELS 6 Xposition Yposition Zposition Xrotation Yrotation Zrotation
											JOINT mixamorig:RightHandMiddle4
											{
												OFFSET -2.946640 0.000000 -0.000156
												CHANNELS 6 Xposition Yposition Zposition Xrotation Yrotation Zrotation
												End Site
												{
													OFFSET -294.664337 0.000000 -0.113670
												}
											}
										}
									}
								}
								JOINT mixamorig:RightHandRing1
								{
									OFFSET -9.103600 -0.043076 -1.865134
									CHANNELS 6 Xposition Yposition Zposition Xrotation Yrotation Zrotation
									JOINT mixamorig:RightHandRing2
									{
										OFFSET -3.379288 0.000000 -0.001055
										CHANNELS 6 Xposition Yposition Zposition Xrotation Yrotation Zrotation
										JOINT mixamorig:RightHandRing3
										{
											OFFSET -2.889687 -0.000015 0.000379
											CHANNELS 6 Xposition Yposition Zposition Xrotation Yrotation Zrotation
											JOINT mixamorig:RightHandRing4
											{
												OFFSET -2.638809 -0.000015 0.000941
												CHANNELS 6 Xposition Yposition Zposition Xrotation Yrotation Zrotation
												End Site
												{
													OFFSET -263.880371 0.000000 0.516020
												}
											}
										}
									}
								}
								JOINT mixamorig:RightHandPinky1
								{
									OFFSET -8.076683 -0.486710 -3.806280
									CHANNELS 6 Xposition Yposition Zposition Xrotation Yrotation Zrotation
									JOINT mixamorig:RightHandPinky2
									{
										OFFSET -3.600014 -0.000015 -0.003747
										CHANNELS 6 Xposition Yposition Zposition Xrotation Yrotation Zrotation
										JOINT mixamorig:RightHandPinky3
										{
											OFFSET -2.099983 0.000000 -0.005739
											CHANNELS 6 Xposition Yposition Zposition Xrotation Yrotation Zrotation
											JOINT mixamorig:RightHandPinky4
											{
												OFFSET -2.115768 -0.000031 -0.003680
												CHANNELS 6 Xposition Yposition Zposition Xrotation Yrotation Zrotation
												End Site
												{
													OFFSET -211.577087 0.000000 -0.350686
												}
											}
										}
									}
								}
							}
						}
					}
				}
				JOINT mixamorig:LeftShoulder
				{
					OFFSET 4.570447 11.014725 -2.160855
					CHANNELS 6 Xposition Yposition Zposition Xrotation Yrotation Zrotation
					JOINT mixamorig:LeftArm
					{
						OFFSET 10.592371 -0.524597 -2.232119
						CHANNELS 6 Xposition Yposition Zposition Xrotation Yrotation Zrotation
						JOINT mixamorig:LeftForeArm
						{
							OFFSET 27.841532 -0.000031 0.000026
							CHANNELS 6 Xposition Yposition Zposition Xrotation Yrotation Zrotation
							JOINT mixamorig:LeftHand
							{
								OFFSET 28.328846 -0.000061 0.000022
								CHANNELS 6 Xposition Yposition Zposition Xrotation Yrotation Zrotation
								JOINT mixamorig:LeftHandThumb1
								{
									OFFSET 2.466141 -1.576172 2.681732
									CHANNELS 6 Xposition Yposition Zposition Xrotation Yrotation Zrotation
									JOINT mixamorig:LeftHandThumb2
									{
										OFFSET 3.217812 -1.872070 1.916482
										CHANNELS 6 Xposition Yposition Zposition Xrotation Yrotation Zrotation
										JOINT mixamorig:LeftHandThumb3
										{
											OFFSET 2.656029 -1.528778 1.514513
											CHANNELS 6 Xposition Yposition Zposition Xrotation Yrotation Zrotation
											JOINT mixamorig:LeftHandThumb4
											{
												OFFSET 2.020889 -1.154053 1.115139
												CHANNELS 6 Xposition Yposition Zposition Xrotation Yrotation Zrotation
												End Site
												{
													OFFSET 190.885437 -115.081749 130.048782
												}
											}
										}
									}
								}
								JOINT mixamorig:LeftHandIndex1
								{
									OFFSET 9.109314 -0.518021 2.259871
									CHANNELS 6 Xposition Yposition Zposition Xrotation Yrotation Zrotation
									JOINT mixamorig:LeftHandIndex2
									{
										OFFSET 3.699989 0.000000 -0.000322
										CHANNELS 6 Xposition Yposition Zposition Xrotation Yrotation Zrotation
										JOINT mixamorig:LeftHandIndex3
										{
											OFFSET 2.850006 0.000000 0.000352
											CHANNELS 6 Xposition Yposition Zposition Xrotation Yrotation Zrotation
											JOINT mixamorig:LeftHandIndex4
											{
												OFFSET 2.774864 -0.000031 -0.000027
												CHANNELS 6 Xposition Yposition Zposition Xrotation Yrotation Zrotation
												End Site
												{
													OFFSET 277.486267 0.000000 -0.009857
												}
											}
										}
									}
								}
								JOINT mixamorig:LeftHandMiddle1
								{
									OFFSET 9.533394 0.000061 0.000044
									CHANNELS 6 Xposition Yposition Zposition Xrotation Yrotation Zrotation
									JOINT mixamorig:LeftHandMiddle2
									{
										OFFSET 3.699989 -0.000015 -0.000231
										CHANNELS 6 Xposition Yposition Zposition Xrotation Yrotation Zrotation
										JOINT mixamorig:LeftHandMiddle3
										{
											OFFSET 2.949997 -0.000015 -0.000059
											CHANNELS 6 Xposition Yposition Zposition Xrotation Yrotation Zrotation
											JOINT mixamorig:LeftHandMiddle4
											{
												OFFSET 2.952896 0.000031 0.000063
												CHANNELS 6 Xposition Yposition Zposition Xrotation Yrotation Zrotation
												End Site
												{
													OFFSET 295.289337 0.000000 0.022810
												}
											}
										}
									}
								}
								JOINT mixamorig:LeftHandRing1
								{
									OFFSET 9.104523 -0.042999 -1.865074
									CHANNELS 6 Xposition Yposition Zposition Xrotation Yrotation Zrotation
									JOINT mixamorig:LeftHandRing2
									{
										OFFSET 3.150009 -0.000031 0.000043
										CHANNELS 6 Xposition Yposition Zposition Xrotation Yrotation Zrotation
										JOINT mixamorig:LeftHandRing3
										{
											OFFSET 2.949982 -0.000015 0.000040
											CHANNELS 6 Xposition Yposition Zposition Xrotation Yrotation Zrotation
											JOINT mixamorig:LeftHandRing4
											{
												OFFSET 2.644348 0.000000 0.000057
												CHANNELS 6 Xposition Yposition Zposition Xrotation Yrotation Zrotation
												End Site
												{
													OFFSET 264.434631 0.000000 0.012105
												}
											}
										}
									}
								}
								JOINT mixamorig:LeftHandPinky1
								{
									OFFSET 8.077789 -0.486847 -3.806259
									CHANNELS 6 Xposition Yposition Zposition Xrotation Yrotation Zrotation
									JOINT mixamorig:LeftHandPinky2
									{
										OFFSET 3.599953 0.000031 0.014727
										CHANNELS 6 Xposition Yposition Zposition Xrotation Yrotation Zrotation
										JOINT mixamorig:LeftHandPinky3
										{
											OFFSET 2.100021 0.000015 0.007705
											CHANNELS 6 Xposition Yposition Zposition Xrotation Yrotation Zrotation
											JOINT mixamorig:LeftHandPinky4
											{
												OFFSET 2.125504 0.000031 0.007517
												CHANNELS 6 Xposition Yposition Zposition Xrotation Yrotation Zrotation
												End Site
												{
													OFFSET 212.550781 0.000000 0.625752
												}
											}
										}
									}
								}
							}
						}
					}
				}
			}
		}
	}
	JOINT mixamorig:RightUpLeg
	{
		OFFSET -8.207787 -6.751648 -1.599560
		CHANNELS 6 Xposition Yposition Zposition Xrotation Yrotation Zrotation
		JOINT mixamorig:RightLeg
		{
			OFFSET -0.000002 -44.370117 0.345942
			CHANNELS 6 Xposition Yposition Zposition Xrotation Yrotation Zrotation
			JOINT mixamorig:RightFoot
			{
				OFFSET 0.000003 -44.423679 -3.043532
				CHANNELS 6 Xposition Yposition Zposition Xrotation Yrotation Zrotation
				JOINT mixamorig:RightToeBase
				{
					OFFSET -0.000002 -8.728671 10.710558
					CHANNELS 6 Xposition Yposition Zposition Xrotation Yrotation Zrotation
					JOINT mixamorig:RightToe_End
					{
						OFFSET -0.000001 -0.000679 9.278119
						CHANNELS 6 Xposition Yposition Zposition Xrotation Yrotation Zrotation
						End Site
						{
							OFFSET 0.000000 -0.067690 927.812134
						}
					}
				}
			}
		}
	}
	JOINT mixamorig:LeftUpLeg
	{
		OFFSET 8.207793 -6.751686 -1.599556
		CHANNELS 6 Xposition Yposition Zposition Xrotation Yrotation Zrotation
		JOINT mixamorig:LeftLeg
		{
			OFFSET -0.000004 -44.370014 0.346954
			CHANNELS 6 Xposition Yposition Zposition Xrotation Yrotation Zrotation
			JOINT mixamorig:LeftFoot
			{
				OFFSET -0.000001 -44.423672 -3.044401
				CHANNELS 6 Xposition Yposition Zposition Xrotation Yrotation Zrotation
				JOINT mixamorig:LeftToeBase
				{
					OFFSET -0.000002 -8.728669 10.710558
					CHANNELS 6 Xposition Yposition Zposition Xrotation Yrotation Zrotation
					JOINT mixamorig:LeftToe_End
					{
						OFFSET -0.000003 -0.000679 9.278133
						CHANNELS 6 Xposition Yposition Zposition Xrotation Yrotation Zrotation
						End Site
						{
							OFFSET 0.000000 -0.068021 927.813477
						}
					}
				}
			}
		}
	}
}
MOTION
Frames: 3
Frame Time: 0.033333
0.000006 104.270477 1.554256 0.000010 0.000003 -0.000113 -0.000005 10.181587 0.131522 0.000001 -0.000003 0.000084 -0.000000 9.893967 -1.470711 0.000001 0.000000 -0.000000 -0.000000 9.220802 -1.370642 0.000000 -0.000000 -0.000000 0.000001 16.740433 -2.049030 0.000000 -0.000000 -0.000000 0.000000 9.617859 1.685014 0.000000 0.000000 0.000000 0.000002 22.037384 7.501101 0.000000 -0.000000 0.000000 -4.569968 11.014880 -2.160881 0.000008 0.000001 -0.000038 -10.592800 -0.524837 -2.231760 71.992448 61.313529 -46.592327 -27.841475 0.000012 0.000591 217.205056 73.764090 -228.320438 -28.328825 0.000021 0.000023 -0.000322 -0.000044 0.000005 -2.464517 -1.574207 2.682170 64.600182 231.328098 120.435605 -3.214808 -1.872962 1.924722 195.220289 -44.309650 257.023625 -2.654458 -1.527828 1.513130 136.823456 -13.590121 171.821291 -2.018829 -1.152001 1.108062 -0.000003 0.000001 -0.000000 -9.108145 -0.517696 2.260447 196.572202 15.988829 -272.081187 -3.699869 0.000197 0.001809 197.739850 13.597046 -285.256102 -2.849963 0.000175 0.000063 201.008656 8.866217 -314.620069 -2.772166 0.000004 -0.000014 -0.000005 -0.000005 -0.000002 -9.532358 0.000098 0.000577 195.219497 14.710257 -271.971740 -3.699928 0.000170 0.004296 197.462736 10.429254 -298.706931 -2.949953 0.000120 -0.001472 202.529452 6.087583 -330.125282 -2.946628 0.000017 -0.000157 0.000003 -0.000001 -0.000005 -9.103519 -0.043095 -1.864550 169.088723 17.080582 -114.811109 -3.379174 0.000180 -0.001086 396.648210 -16.948238 5.647332 -2.889567 0.000015 0.000326 360.917496 -26.859060 0.228533 -2.638815 -0.000028 0.000945 0.000001 0.000001 -0.000001 -8.076621 -0.486726 -3.805709 171.811674 7.916213 -86.351657 -3.599778 0.000028 -0.003794 375.858316 -39.445401 5.640851 -2.099824 -0.000034 -0.005799 351.273870 -28.506121 -2.285903 -2.115767 -0.000055 -0.003666 -0.000000 -0.000001 -0.000004 4.570446 11.014691 -2.160851 -0.000018 0.000010 -0.000021 10.592514 -0.524523 -2.232392 66.509568 -60.254051 41.667490 27.841761 -0.000069 -0.000111 43.344620 -106.138052 55.728780 28.328833 -0.000014 0.000024 0.000019 -0.000089 -0.000001 2.466154 -1.576180 2.681859 109.734933 142.079287 -154.920165 3.217774 -1.872037 1.916539 239.781441 55.678036 67.383573 2.655903 -1.528828 1.514618 -185.929402 50.920122 135.444140 2.020890 -1.154053 1.115149 0.000001 0.000003 0.000006 9.109124 -0.517696 2.260009 -159.741336 -11.131042 -57.200007 3.699742 0.000283 -0.000190 -161.886726 -13.939024 -74.981339 2.849805 0.000356 0.000495 -160.599836 -11.322358 -60.219046 2.774879 -0.000033 -0.000025 0.000000 -0.000004 -0.000003 9.533228 0.000393 0.000179 -158.736902 -10.145874 -50.603874 3.699822 0.000335 -0.000073 -154.139666 -11.215565 -46.306166 2.949896 0.000337 0.000111 29.044673 -170.707027 145.154607 2.952862 -0.000031 0.000056 0.000000 -0.000000 -0.000002 9.104394 -0.042684 -1.864933 -155.857786 -10.316915 -45.776566 3.149921 0.000391 0.000232 -326.835316 186.789746 157.463031 2.949930 0.000375 0.000220 -324.944201 184.657661 165.321587 2.644331 0.000046 0.000059 0.000002 -0.000001 0.000001 8.077639 -0.486529 -3.806108 -151.410978 -10.618963 -41.044038 3.599918 0.000381 0.014922 37.105587 -177.389712 171.089217 2.099998 0.000388 0.007886 -323.698647 180.309617 177.844452 2.125496 -0.000032 0.007515 -0.000000 0.000003 -0.000003 -8.207786 -6.751667 -1.599560 -0.077001 -0.000003 0.000080 -0.000002 -44.370110 0.345938 0.153719 -0.000000 -0.000000 0.000000 -44.423679 -3.043532 -0.076700 0.000000 -0.000002 -0.000006 -8.728667 10.710559 -0.000009 -0.000000 -0.000000 -0.000001 -0.000679 9.278123 0.000000 -0.000000 -0.000000 8.207792 -6.751710 -1.599556 -0.074518 -0.000003 0.000081 -0.000002 -44.370014 0.346960 0.148822 0.000002 0.000000 -0.000001 -44.423664 -3.044403 -0.074314 0.000000 -0.000002 -0.000004 -8.728671 10.710558 0.000007 -0.000000 -0.000000 0.000000 -0.000680 9.278137 -0.000000 0.000000 -0.000001 
0.000006 104.270477 1.554256 0.000010 0.000003 -0.000113 -0.000005 10.181587 0.131522 0.000001 -0.000003 0.000084 -0.000000 9.893967 -1.470711 0.000001 0.000000 -0.000000 -0.000000 9.220802 -1.370642 0.000000 -0.000000 -0.000000 0.000001 16.740433 -2.049030 0.000000 -0.000000 -0.000000 0.000000 9.617859 1.685014 0.000000 0.000000 0.000000 0.000002 22.037384 7.501101 0.000000 -0.000000 0.000000 -4.569968 11.014880 -2.160881 0.000008 0.000001 -0.000038 -10.592804 -0.524846 -2.231762 72.194341 60.647442 -46.194403 -27.841473 -0.000001 0.000595 215.981373 73.688575 -226.862875 -28.328831 0.000005 0.000013 -0.000323 -0.000045 0.000007 -2.464502 -1.574196 2.682154 63.984003 232.433305 119.386980 -3.214804 -1.872949 1.924707 195.532525 -44.292281 257.390187 -2.654515 -1.527737 1.513087 132.009976 -4.887746 156.723690 -2.018834 -1.152004 1.108060 -0.000002 -0.000002 0.000002 -9.108105 -0.517723 2.260433 191.788365 15.604592 -254.037958 -3.699818 0.000182 0.001823 195.062703 15.953951 -266.654301 -2.849900 0.000176 0.000069 198.320717 12.545714 -291.439145 -2.772169 -0.000004 -0.000027 -0.000004 0.000001 -0.000001 -9.532315 0.000094 0.000560 190.520013 13.996312 -253.899551 -3.699857 0.000186 0.004309 195.633283 12.869648 -281.241700 -2.949923 0.000139 -0.001466 200.319217 10.440402 -305.984060 -2.946627 0.000002 -0.000154 -0.000003 -0.000002 0.000004 -9.103524 -0.043103 -1.864556 169.481199 15.856166 -112.774093 -3.379207 0.000168 -0.001080 392.511492 -12.039140 3.519646 -2.889604 0.000030 0.000342 361.793700 -18.807899 0.303240 -2.638820 -0.000029 0.000945 -0.000001 0.000000 0.000001 -8.076627 -0.486721 -3.805712 170.178125 10.379163 -91.818909 -3.599827 0.000000 -0.003795 369.817942 -30.703695 2.639893 -2.099869 -0.000044 -0.005805 351.749879 -21.743226 -1.639557 -2.115777 -0.000056 -0.003678 -0.000001 -0.000001 -0.000002 4.570446 11.014691 -2.160851 -0.000018 0.000010 -0.000021 10.592518 -0.524525 -2.232398 66.787878 -60.003150 41.676674 27.841753 -0.000071 -0.000096 42.699754 -107.509397 56.132629 28.328829 -0.000012 0.000025 0.000023 -0.000089 0.000001 2.466159 -1.576126 2.681895 113.803533 153.209981 -158.682588 3.217829 -1.871995 1.916523 263.444795 39.588582 42.159192 2.656016 -1.528811 1.514624 -137.987320 48.686391 80.079979 2.020891 -1.154069 1.115140 0.000001 -0.000000 0.000003 9.109192 -0.517685 2.260047 -147.223116 -11.191376 -36.830525 3.699904 0.000334 -0.000141 -143.705377 -8.794622 -26.437272 2.849916 0.000336 0.000534 -143.090633 -7.762764 -22.981549 2.774897 -0.000029 -0.000024 -0.000000 0.000001 -0.000001 9.533203 0.000396 0.000196 -159.746541 -11.731228 -59.802063 3.700016 -0.000024 -0.000260 8.350425 -4.456763 0.325255 2.950040 -0.000007 -0.000122 200.082687 -183.434866 179.391968 2.952859 -0.000015 0.000064 -0.000002 -0.000001 -0.000000 9.104374 -0.042657 -1.864920 -157.287768 -9.840375 -46.406511 3.149968 0.000022 -0.000048 -176.590361 143.585521 178.877737 2.949950 0.000059 -0.000084 -159.344666 160.223261 176.361085 2.644316 0.000028 0.000062 -0.000000 -0.000001 0.000001 8.077683 -0.486498 -3.806090 -152.005956 -7.440185 -30.485607 3.599909 -0.000000 0.014673 177.286084 -217.319462 180.765574 2.099969 0.000039 0.007587 -156.161088 156.567839 174.980950 2.125504 -0.000013 0.007516 0.000001 -0.000000 0.000003 -8.207786 -6.751667 -1.599560 -0.077001 -0.000003 0.000080 -0.000002 -44.370110 0.345938 0.153719 -0.000000 -0.000000 0.000000 -44.423679 -3.043532 -0.076700 0.000000 -0.000002 -0.000006 -8.728667 10.710559 -0.000009 -0.000000 -0.000000 -0.000001 -0.000679 9.278123 0.000000 -0.000000 -0.000000 8.207792 -6.751710 -1.599556 -0.074518 -0.000003 0.000081 -0.000002 -44.370014 0.346960 0.148822 0.000002 0.000000 -0.000001 -44.423664 -3.044403 -0.074314 0.000000 -0.000002 -0.000004 -8.728671 10.710558 0.000007 -0.000000 -0.000000 0.000000 -0.000680 9.278137 -0.000000 0.000000 -0.000001 
0.000006 104.270477 1.554256 0.000010 0.000003 -0.000113 -0.000005 10.181587 0.131522 0.000001 -0.000003 0.000084 -0.000000 9.893967 -1.470711 0.000001 0.000000 -0.000000 -0.000000 9.220802 -1.370642 0.000000 -0.000000 -0.000000 0.000001 16.740433 -2.049030 0.000000 -0.000000 -0.000000 0.000000 9.617859 1.685014 0.000000 0.000000 0.000000 0.000002 22.037384 7.501101 0.000000 -0.000000 0.000000 -4.569968 11.014880 -2.160881 0.000008 0.000001 -0.000038 -10.592802 -0.524847 -2.231761 72.516651 61.148778 -46.856211 -27.841469 0.000001 0.000583 215.884712 74.056982 -226.464115 -28.328836 0.000021 0.000016 -0.000321 -0.000046 0.000007 -2.464507 -1.574214 2.682173 66.906812 231.871808 121.979980 -3.214819 -1.872975 1.924709 196.583062 -45.346012 257.796857 -2.654459 -1.527783 1.513088 133.524679 -9.513096 162.403416 -2.018822 -1.152000 1.108059 -0.000001 -0.000002 -0.000000 -9.108114 -0.517695 2.260439 193.277032 15.045797 -262.803686 -3.699824 0.000212 0.001817 194.482629 13.525037 -273.951675 -2.849930 0.000203 0.000069 197.225250 9.786600 -301.047418 -2.772154 0.000008 -0.000020 -0.000000 0.000003 -0.000001 -9.532351 0.000109 0.000565 193.203048 13.312761 -269.538854 -3.699840 0.000191 0.004305 192.559166 10.170038 -282.155060 -2.949929 0.000183 -0.001470 196.718846 7.170153 -313.834734 -2.946629 0.000001 -0.000150 0.000001 -0.000001 -0.000001 -9.103539 -0.043108 -1.864561 168.433367 16.219614 -108.907209 -3.379189 0.000164 -0.001077 395.178872 -14.604363 4.649920 -2.889590 0.000029 0.000326 361.639693 -23.238532 0.345028 -2.638813 -0.000003 0.000942 0.000000 -0.000000 0.000002 -8.076637 -0.486706 -3.805723 169.159730 10.155533 -84.937063 -3.599819 0.000016 -0.003797 374.396164 -32.661726 4.181609 -2.099849 -0.000041 -0.005799 352.058959 -25.430585 -1.852958 -2.115770 -0.000040 -0.003683 0.000001 0.000001 -0.000003 4.570446 11.014691 -2.160851 -0.000018 0.000010 -0.000021 10.592512 -0.524534 -2.232402 66.916320 -59.493372 41.378020 27.841749 -0.000054 -0.000114 44.107709 -106.830326 57.251161 28.328833 -0.000012 0.000024 0.000023 -0.000087 -0.000001 2.466163 -1.576164 2.681871 116.141507 152.266500 -159.678512 3.217815 -1.871999 1.916539 265.054042 37.175203 40.230398 2.656035 -1.528790 1.514606 -125.177191 42.612959 65.139255 2.020895 -1.154068 1.115139 -0.000002 0.000003 0.000001 9.109171 -0.517709 2.260048 -146.355326 -13.453405 -42.605880 3.699880 0.000315 -0.000129 -141.020170 -12.390104 -34.124974 2.849918 0.000349 0.000553 -137.446847 -10.877750 -27.476955 2.774870 -0.000047 -0.000022 -0.000000 0.000001 0.000001 9.533222 0.000362 0.000198 -156.994808 -12.054450 -54.832216 3.700026 0.000183 -0.000391 78.326697 -2.692196 2.191064 2.950020 0.000009 -0.000145 201.573253 -180.375829 179.928862 2.952870 -0.000033 0.000063 -0.000001 0.000005 -0.000002 9.104344 -0.042710 -1.864933 -158.382087 -11.443477 -55.384225 3.149916 0.000137 -0.000144 -131.541958 144.748907 163.726287 2.949956 0.000046 -0.000095 -150.243234 160.711073 174.830071 2.644319 0.000028 0.000060 0.000000 -0.000001 -0.000000 8.077598 -0.486555 -3.806114 -158.379301 -11.499623 -56.444625 3.599842 0.000094 0.014544 232.913002 -223.849587 157.313532 2.099961 0.000072 0.007565 -142.421274 156.486150 171.937117 2.125502 -0.000003 0.007513 0.000001 0.000000 -0.000002 -8.207786 -6.751667 -1.599560 -0.077001 -0.000003 0.000080 -0.000002 -44.370110 0.345938 0.153719 -0.000000 -0.000000 0.000000 -44.423679 -3.043532 -0.076700 0.000000 -0.000002 -0.000006 -8.728667 10.710559 -0.000009 -0.000000 -0.000000 -0.000001 -0.000679 9.278123 0.000000 -0.000000 -0.000000 8.207792 -6.751710 -1.599556 -0.074518 -0.000003 0.000081 -0.000002 -44.370014 0.346960 0.148822 0.000002 0.000000 -0.000001 -44.423664 -3.044403 -0.074314 0.000000 -0.000002 -0.000004 -8.728671 10.710558 0.000007 -0.000000 -0.000000 0.000000 -0.000680 9.278137 -0.000000 0.000000 -0.000001 
